<svg xmlns="http://www.w3.org/2000/svg" xmlns:xlink="http://www.w3.org/1999/xlink" version="1.1" width="256" height="256" viewBox="0 0 256 256" xml:space="preserve">

<defs>
</defs>
<g style="stroke: none; stroke-width: 0; stroke-dasharray: none; stroke-linecap: butt; stroke-linejoin: miter; stroke-miterlimit: 10; fill: none; fill-rule: nonzero; opacity: 1;" transform="translate(1.4065934065934016 1.4065934065934016) scale(2.81 2.81)" >
	<path d="M 61.478 90 H 28.522 c -7.26 0 -13.167 -5.903 -13.167 -13.16 V 13.167 C 15.355 5.907 21.262 0 28.522 0 h 32.949 c 7.257 0 13.167 5.906 13.175 13.165 v 63.668 C 74.646 84.094 68.738 90 61.478 90 z M 28.522 4 c -5.055 0 -9.167 4.112 -9.167 9.167 V 76.84 c 0 5.051 4.112 9.16 9.167 9.16 h 32.956 c 5.056 0 9.168 -4.112 9.168 -9.167 V 13.167 C 70.64 8.113 66.524 4 61.471 4 H 28.522 z" style="stroke: none; stroke-width: 1; stroke-dasharray: none; stroke-linecap: butt; stroke-linejoin: miter; stroke-miterlimit: 10; fill: rgb(0,0,0); fill-rule: nonzero; opacity: 1;" transform=" matrix(1 0 0 1 0 0) " stroke-linecap="round" />
	<path d="M 57.403 60.956 c -0.691 0 -1.364 -0.358 -1.734 -1.001 L 46.861 44.68 c -0.552 -0.957 -0.224 -2.18 0.733 -2.731 c 0.955 -0.553 2.18 -0.224 2.731 0.733 l 8.808 15.275 c 0.552 0.957 0.224 2.18 -0.733 2.731 C 58.086 60.87 57.742 60.956 57.403 60.956 z" style="stroke: none; stroke-width: 1; stroke-dasharray: none; stroke-linecap: butt; stroke-linejoin: miter; stroke-miterlimit: 10; fill: rgb(0,0,0); fill-rule: nonzero; opacity: 1;" transform=" matrix(1 0 0 1 0 0) " stroke-linecap="round" />
	<path d="M 44.903 39.277 c -0.692 0 -1.364 -0.359 -1.734 -1.001 l -3.594 -6.232 c -0.552 -0.957 -0.224 -2.18 0.733 -2.731 c 0.957 -0.553 2.18 -0.223 2.731 0.733 l 3.594 6.232 c 0.552 0.957 0.223 2.18 -0.734 2.731 C 45.585 39.191 45.242 39.277 44.903 39.277 z" style="stroke: none; stroke-width: 1; stroke-dasharray: none; stroke-linecap: butt; stroke-linejoin: miter; stroke-miterlimit: 10; fill: rgb(0,0,0); fill-rule: nonzero; opacity: 1;" transform=" matrix(1 0 0 1 0 0) " stroke-linecap="round" />
	<path d="M 32.376 60.892 c -0.342 0 -0.688 -0.087 -1.004 -0.271 c -0.955 -0.556 -1.278 -1.78 -0.722 -2.735 l 1.12 -1.923 c 0.556 -0.955 1.782 -1.278 2.735 -0.722 c 0.955 0.556 1.278 1.78 0.722 2.735 l -1.12 1.923 C 33.735 60.536 33.065 60.892 32.376 60.892 z" style="stroke: none; stroke-width: 1; stroke-dasharray: none; stroke-linecap: butt; stroke-linejoin: miter; stroke-miterlimit: 10; fill: rgb(0,0,0); fill-rule: nonzero; opacity: 1;" transform=" matrix(1 0 0 1 0 0) " stroke-linecap="round" />
	<path d="M 37.101 52.778 c -0.342 0 -0.688 -0.087 -1.005 -0.271 c -0.954 -0.557 -1.277 -1.78 -0.721 -2.735 l 11.49 -19.729 c 0.557 -0.955 1.781 -1.278 2.735 -0.721 c 0.954 0.556 1.277 1.78 0.722 2.735 L 38.831 51.785 C 38.46 52.423 37.79 52.778 37.101 52.778 z" style="stroke: none; stroke-width: 1; stroke-dasharray: none; stroke-linecap: butt; stroke-linejoin: miter; stroke-miterlimit: 10; fill: rgb(0,0,0); fill-rule: nonzero; opacity: 1;" transform=" matrix(1 0 0 1 0 0) " stroke-linecap="round" />
	<path d="M 61.103 52.778 C 61.103 52.778 61.103 52.778 61.103 52.778 l -8.417 -0.003 c -1.104 0 -1.999 -0.896 -1.999 -2.001 s 0.896 -1.999 2 -1.999 c 0 0 0 0 0.001 0 l 8.416 0.003 c 1.104 0 1.999 0.896 1.999 2.001 S 62.207 52.778 61.103 52.778 z" style="stroke: none; stroke-width: 1; stroke-dasharray: none; stroke-linecap: butt; stroke-linejoin: miter; stroke-miterlimit: 10; fill: rgb(0,0,0); fill-rule: nonzero; opacity: 1;" transform=" matrix(1 0 0 1 0 0) " stroke-linecap="round" />
	<path d="M 44.97 52.774 C 44.97 52.774 44.97 52.774 44.97 52.774 l -16.073 -0.007 c -1.104 0 -2 -0.896 -1.999 -2.001 s 0.896 -1.999 2 -1.999 c 0 0 0 0 0.001 0 l 16.072 0.007 c 1.104 0 2 0.896 1.999 2.001 C 46.97 51.88 46.074 52.774 44.97 52.774 z" style="stroke: none; stroke-width: 1; stroke-dasharray: none; stroke-linecap: butt; stroke-linejoin: miter; stroke-miterlimit: 10; fill: rgb(0,0,0); fill-rule: nonzero; opacity: 1;" transform=" matrix(1 0 0 1 0 0) " stroke-linecap="round" />
</g>
</svg>