<svg width="363" height="363" viewBox="0 0 363 363" fill="none" xmlns="http://www.w3.org/2000/svg">
<line x1="3" y1="-3" x2="203.585" y2="-3" transform="matrix(0.963564 0.267478 -0.234446 0.972129 114.204 163.142)" stroke="black" stroke-width="6" stroke-linecap="round"/>
<line x1="3" y1="-3" x2="136.623" y2="-3" transform="matrix(0.96503 0.262141 -0.228842 0.973463 133.149 229.383)" stroke="black" stroke-width="6" stroke-linecap="round"/>
<line x1="3" y1="-3" x2="67.4517" y2="-3" transform="matrix(0.96503 0.262141 -0.228842 0.973463 152.023 293.384)" stroke="black" stroke-width="6" stroke-linecap="round"/>
<line x1="116.322" y1="156.675" x2="157.706" y2="114.253" stroke="black" stroke-width="6" stroke-linecap="round"/>
<line x1="3" y1="-3" x2="275.23" y2="-3" transform="matrix(-0.280515 -0.95985 0.968973 -0.247165 176.538 358.547)" stroke="black" stroke-width="6" stroke-linecap="round"/>
<line x1="3" y1="-3" x2="264.292" y2="-3" transform="matrix(-0.706816 0.707397 -0.708041 -0.706172 358.692 167.2)" stroke="black" stroke-width="6" stroke-linecap="round"/>
<line x1="3" y1="-3" x2="272.611" y2="-3" transform="matrix(0.962439 0.271497 -0.238668 0.971101 95.614 98.6508)" stroke="black" stroke-width="6" stroke-linecap="round"/>
<line x1="3" y1="-3" x2="195.927" y2="-3" transform="matrix(0.709849 -0.704354 0.705232 0.708977 154.006 291.319)" stroke="black" stroke-width="6" stroke-linecap="round"/>
<line x1="135.217" y1="222.872" x2="221.07" y2="132.702" stroke="black" stroke-width="6" stroke-linecap="round"/>
<line x1="3" y1="-3" x2="200.756" y2="-3" transform="matrix(-0.283914 -0.95885 0.968056 -0.250733 219.798 309.573)" stroke="black" stroke-width="6" stroke-linecap="round"/>
<line x1="263.936" y1="263.133" x2="224.431" y2="135.102" stroke="black" stroke-width="6" stroke-linecap="round"/>
<line x1="3" y1="-3" x2="65.8484" y2="-3" transform="matrix(-0.323506 -0.946226 0.956283 -0.292442 315.432 216.174)" stroke="black" stroke-width="6" stroke-linecap="round"/>
</svg>
